<svg id="Capa_1" enable-background="new 0 0 512 512" height="512" viewBox="0 0 512 512" width="512" xmlns="http://www.w3.org/2000/svg"><g><path d="m404.271 382.914-148.271-.075-148-.073c-37.202 24.065-62 65.722-62 113.234v16h210 210v-16c0-47.402-24.67-88.995-61.729-113.086z" fill="#ff8fb8"/><path d="m466 496c0-47.402-24.67-88.995-61.729-113.086l-148.271-.075v129.161h210z" fill="#ff5f96"/><path d="m377.15 369.65-121.15-.004-121.133-.002c-9.47 3.472-18.521 7.722-26.867 13.121 29.372 52.877 85.049 87.673 148 87.673 63.419 0 119.035-34.557 148.271-87.524-8.413-5.471-17.559-9.758-27.121-13.264z" fill="#fff5f5"/><path d="m404.271 382.914c-8.414-5.471-17.56-9.758-27.122-13.264l-121.149-.004v100.792c63.419 0 119.035-34.557 148.271-87.524z" fill="#efe2dd"/><path d="m331 361h-15v-25.107h-60-60v25.107h-15c-16.271 0-31.675 3.345-46.133 8.644 24.401 42.795 69.901 70.794 121.133 70.794 51.599 0 96.846-27.936 121.15-70.789-14.462-5.302-29.872-8.649-46.15-8.649z" fill="#fa9"/><path d="m377.15 369.65c-14.462-5.303-29.872-8.65-46.15-8.65h-15v-25.107h-60v104.546c51.599-.001 96.846-27.937 121.15-70.789z" fill="#ff8066"/><path d="m436 196.513v-15.513c0-99.412-80.588-181-180-181s-180 81.588-180 181v15.513c-20.479 15.234-31.743 39.507-29.78 65.244 2.944 38.833 37.426 69.243 78.515 69.243h131.265 131.265c41.089 0 75.571-30.41 78.516-69.229 1.962-25.751-9.302-50.024-29.781-65.258z" fill="#5a5a5a"/><path d="m465.78 261.771c1.963-25.752-9.302-50.024-29.78-65.259v-15.512c0-99.412-80.588-181-180-181v331h131.265c41.089 0 75.571-30.41 78.515-69.229z" fill="#444"/><path d="m316 151c-24.6 0-46.199-11.7-60-30-13.801 18.3-35.4 30-60 30h-60v90c0 66.273 53.725 120 120 120s120-53.727 120-120v-90z" fill="#ffd5cc"/><path d="m376 241v-90h-60c-24.6 0-46.199-11.7-60-30v240c66.275 0 120-53.727 120-120z" fill="#fa9"/><g><path d="m196 181h30v30h-30z" fill="#5a5a5a"/></g><g><path d="m286 181h30v30h-30z" fill="#444"/></g><path d="m283.642 252.646c-4.717 11.147-15.572 18.354-27.642 18.354s-22.925-7.207-27.642-18.354l-27.627 11.719c9.434 22.25 31.128 36.635 55.269 36.635s45.835-14.385 55.269-36.636z" fill="#ff7b4a"/><path d="m311.269 264.364-27.627-11.719c-4.717 11.148-15.572 18.355-27.642 18.355v30c24.141 0 45.835-14.385 55.269-36.636z" fill="#ff435b"/></g></svg>