<svg id="Capa_1" enable-background="new 0 0 512 512" height="512" viewBox="0 0 512 512" width="512" xmlns="http://www.w3.org/2000/svg"><g><g><path d="m331 361h-30l-30 30h-15-15l-30-30h-30c-74.559 0-135 60.441-135 135v16h210 210v-16c0-74.559-60.441-135-135-135z" fill="#65d6a9"/></g><g><path d="m466 496c0-74.559-60.441-135-135-135h-30l-30 30h-15v121h210z" fill="#26bfa6"/></g><g><path d="m256 316h-45v75c0 24.853 20.147 45 45 45s45-20.147 45-45v-75z" fill="#fc9"/></g><g><path d="m301 391v-75h-45v120c24.853 0 45-20.147 45-45z" fill="#ffb366"/></g><path d="m331 76h-75-75l-45 60v105c0 61.135 45.886 111.03 105 118.488l15-28.488 15 28.488c59.114-7.458 105-57.353 105-118.488v-105z" fill="#ffe6cc"/><path d="m376 241v-105l-45-60h-75v255l15 28.488c59.114-7.458 105-57.353 105-118.488z" fill="#fc9"/><g><path d="m196 181h30v30h-30z" fill="#5a5a5a"/></g><g><path d="m286 181h30v30h-30z" fill="#444"/></g><g><path d="m269.418 234-13.418.044-13.374-.044c-.117.22-11.499 22-31.626 22v30c20.464 0 35.361-10.21 45-20.083 9.639 9.873 24.536 20.083 45 20.083v-30c-20.127 0-31.509-21.868-31.582-22z" fill="#5a5a5a"/><path d="m301 256c-20.127 0-31.509-21.868-31.582-22l-13.418.044v31.873c9.639 9.873 24.536 20.083 45 20.083z" fill="#444"/></g><path d="m256 301h-15v58.488c4.968.626 9.862 1.512 15 1.512s10.032-.886 15-1.512v-58.488z" fill="#5a5a5a"/><path d="m271 301h-15v60c5.138 0 10.032-.886 15-1.512z" fill="#444"/><path d="m307.299 30.22c-14.683-13.532-32.335-22.733-51.299-27.158-10.876-2.538-17.774-2.945-25.84-3.062-59.031 0-114.919 56.51-94.16 136h15c42.524 0 78.257-6.431 105-13.478 18.95-4.995 33.519-10.287 42.188-13.87 12.186 10.195 36.577 27.348 62.812 27.348h15v-15.952c0-47.181-21.266-86.457-68.701-89.828z" fill="#5a5a5a"/><path d="m361 136h15v-15.952c0-47.181-21.266-86.457-68.701-89.828-14.683-13.532-32.335-22.733-51.299-27.158v119.46c18.95-4.995 33.519-10.287 42.188-13.87 12.186 10.195 36.577 27.348 62.812 27.348z" fill="#444"/></g></svg>